<svg width="17" height="17" viewBox="0 0 17 17" fill="none" xmlns="http://www.w3.org/2000/svg">
<path d="M8.20397 1.44043C5.44306 1.44043 3.20288 3.45681 3.20288 5.94141C3.20288 9.94228 8.20397 15.4435 8.20397 15.4435C8.20397 15.4435 13.2051 9.94228 13.2051 5.94141C13.2051 3.45681 10.9649 1.44043 8.20397 1.44043ZM8.20397 8.44195C7.80832 8.44195 7.42156 8.32463 7.09259 8.10482C6.76362 7.88501 6.50722 7.57258 6.35581 7.20705C6.2044 6.84152 6.16478 6.4393 6.24197 6.05125C6.31916 5.66321 6.50968 5.30676 6.78945 5.027C7.06921 4.74723 7.42566 4.55671 7.8137 4.47952C8.20175 4.40233 8.60397 4.44195 8.9695 4.59336C9.33503 4.74476 9.64746 5.00117 9.86727 5.33014C10.0871 5.65911 10.2044 6.04587 10.2044 6.44152C10.2038 6.97189 9.99288 7.48037 9.61785 7.8554C9.24282 8.23043 8.73434 8.44137 8.20397 8.44195Z" fill="white"/>
</svg>
