<svg width="17" height="17" viewBox="0 0 17 17" fill="none" xmlns="http://www.w3.org/2000/svg">
<path d="M14.8827 13.788L11.9418 10.8471C12.6498 9.90449 13.0321 8.75716 13.0308 7.57825C13.0308 4.56697 10.5809 2.11707 7.56959 2.11707C4.55831 2.11707 2.1084 4.56697 2.1084 7.57825C2.1084 10.5895 4.55831 13.0394 7.56959 13.0394C8.74849 13.0407 9.89583 12.6585 10.8384 11.9505L13.7794 14.8914C13.9282 15.0245 14.1224 15.0955 14.322 15.0899C14.5216 15.0843 14.7115 15.0026 14.8527 14.8614C14.9939 14.7202 15.0757 14.5303 15.0813 14.3307C15.0869 14.1311 15.0158 13.9369 14.8827 13.788ZM3.66874 7.57825C3.66874 6.80674 3.89752 6.05255 4.32615 5.41106C4.75478 4.76957 5.36401 4.26959 6.0768 3.97434C6.78958 3.67909 7.57391 3.60184 8.3306 3.75236C9.08729 3.90287 9.78236 4.27439 10.3279 4.81994C10.8734 5.36548 11.245 6.06054 11.3955 6.81724C11.546 7.57393 11.4687 8.35826 11.1735 9.07104C10.8783 9.78383 10.3783 10.3931 9.73678 10.8217C9.09529 11.2503 8.3411 11.4791 7.56959 11.4791C6.5354 11.4779 5.54392 11.0665 4.81264 10.3352C4.08136 9.60392 3.66998 8.61244 3.66874 7.57825Z" fill="black"/>
</svg>
