<svg width="82" height="32" viewBox="0 0 82 32" fill="none" xmlns="http://www.w3.org/2000/svg">
<path d="M4.89236 9.50139V17.5698C4.89236 18.3195 5.06333 18.8981 5.40527 19.3058C5.76036 19.7135 6.293 19.9174 7.00318 19.9174C7.71336 19.9174 8.246 19.7135 8.60109 19.3058C8.96933 18.885 9.15346 18.3063 9.15346 17.5698V9.50139H13.02V17.5698C13.02 18.8455 12.7504 19.9371 12.2112 20.8446C11.672 21.7389 10.9355 22.4162 10.0017 22.8765C9.08112 23.3236 8.0553 23.5472 6.92427 23.5472C5.79324 23.5472 4.78058 23.3236 3.88627 22.8765C3.00512 22.4162 2.30809 21.7389 1.79518 20.8446C1.29542 19.9503 1.04555 18.8587 1.04555 17.5698V9.50139H4.89236ZM22.3888 12.2435C23.6645 12.2435 24.6771 12.6709 25.4268 13.5258C26.1764 14.3675 26.5512 15.5116 26.5512 16.9583V23.4091H22.6847V17.4712C22.6847 16.8399 22.5203 16.3468 22.1915 15.9917C21.8627 15.6234 21.4221 15.4393 20.8698 15.4393C20.2911 15.4393 19.8374 15.6234 19.5086 15.9917C19.1798 16.3468 19.0154 16.8399 19.0154 17.4712V23.4091H15.1489V12.3421H19.0154V13.9203C19.3573 13.4205 19.8176 13.0194 20.3963 12.7169C20.975 12.4013 21.6391 12.2435 22.3888 12.2435ZM30.6258 11.3163C29.9419 11.3163 29.3896 11.1322 28.9687 10.7639C28.561 10.3825 28.3572 9.90909 28.3572 9.34357C28.3572 8.7649 28.561 8.28487 28.9687 7.90348C29.3896 7.52209 29.9419 7.33139 30.6258 7.33139C31.2965 7.33139 31.8358 7.52209 32.2435 7.90348C32.6643 8.28487 32.8747 8.7649 32.8747 9.34357C32.8747 9.90909 32.6643 10.3825 32.2435 10.7639C31.8358 11.1322 31.2965 11.3163 30.6258 11.3163ZM32.5394 12.3421V23.4091H28.6728V12.3421H32.5394ZM39.4561 23.5472C38.4566 23.5472 37.5623 23.3828 36.7732 23.054C35.9972 22.7121 35.3791 22.2518 34.9188 21.6731C34.4717 21.0813 34.2218 20.4171 34.1692 19.6807H37.9174C37.97 20.0358 38.1344 20.3119 38.4105 20.5092C38.6867 20.7065 39.0287 20.8051 39.4364 20.8051C39.752 20.8051 40.0019 20.7394 40.186 20.6078C40.3701 20.4763 40.4622 20.3054 40.4622 20.0949C40.4622 19.8188 40.3109 19.6149 40.0085 19.4834C39.706 19.3519 39.2062 19.2072 38.5092 19.0494C37.7201 18.8916 37.0625 18.714 36.5365 18.5168C36.0104 18.3195 35.5501 17.9973 35.1555 17.5501C34.7741 17.103 34.5835 16.498 34.5835 15.7352C34.5835 15.0776 34.761 14.4858 35.1161 13.9598C35.4712 13.4205 35.9907 12.9931 36.6745 12.6775C37.3716 12.3618 38.2067 12.204 39.1799 12.204C40.6266 12.204 41.7642 12.5591 42.5927 13.2693C43.4213 13.9795 43.9013 14.9132 44.0328 16.0706H40.5411C40.4753 15.7155 40.3175 15.4459 40.0676 15.2618C39.8309 15.0645 39.5087 14.9658 39.101 14.9658C38.7854 14.9658 38.5421 15.025 38.3711 15.1434C38.2133 15.2618 38.1344 15.4261 38.1344 15.6366C38.1344 15.8996 38.2856 16.1035 38.5881 16.2481C38.8906 16.3796 39.3772 16.5177 40.0479 16.6624C40.8501 16.8334 41.5143 17.0241 42.0404 17.2345C42.5796 17.4449 43.0465 17.7868 43.441 18.2603C43.8487 18.7206 44.0525 19.3519 44.0525 20.1541C44.0525 20.7985 43.8618 21.3772 43.4805 21.8901C43.1122 22.403 42.5796 22.8107 41.8825 23.1132C41.1987 23.4025 40.3898 23.5472 39.4561 23.5472ZM52.8777 23.4091L49.82 18.8718V23.4091H45.9535V8.81094H49.82V16.6821L52.8777 12.3421H57.5136L53.1539 17.9052L57.5925 23.4091H52.8777ZM70.6414 12.3421L63.6185 28.6763H59.4165L62.06 22.9357L57.5227 12.3421H61.8233L64.1511 18.6154L66.4 12.3421H70.6414Z" fill="white"/>
<circle cx="76.7955" cy="4.93182" r="4.93182" fill="#D0EB2C"/>
</svg>
